SplineFontDB: 3.2
FontName: Helvetica
FullName: Helvetica
FamilyName: Helvetica
Weight: Book
Copyright: Copyright (c) 1992-97 Hewlett-Packard. All rights reserved.
Version: 1.3 (Hewlett-Packard)
ItalicAngle: 0
UnderlinePosition: -256
UnderlineWidth: 102
Ascent: 1638
Descent: 410
InvalidEm: 0
sfntRevision: 0x00270004
LayerCount: 2
Layer: 0 1 "Back" 1
Layer: 1 1 "Fore" 0
XUID: [1021 192 -573158488 12032]
StyleMap: 0x0040
FSType: 14
OS2Version: 1
OS2_WeightWidthSlopeOnly: 0
OS2_UseTypoMetrics: 0
CreationTime: 889048800
ModificationTime: 889048800
PfmFamily: 17
TTFWeight: 400
TTFWidth: 5
LineGap: 8
VLineGap: 0
Panose: 2 11 6 4 2 2 2 3 2 4
OS2TypoAscent: 1491
OS2TypoAOffset: 0
OS2TypoDescent: -431
OS2TypoDOffset: 0
OS2TypoLinegap: 307
OS2WinAscent: 1907
OS2WinAOffset: 0
OS2WinDescent: 461
OS2WinDOffset: 0
HheadAscent: 1900
HheadAOffset: 0
HheadDescent: -447
HheadDOffset: 0
OS2SubXSize: 1434
OS2SubYSize: 1331
OS2SubXOff: 0
OS2SubYOff: 283
OS2SupXSize: 1434
OS2SupYSize: 1331
OS2SupXOff: 0
OS2SupYOff: 977
OS2StrikeYSize: 102
OS2StrikeYPos: 530
OS2FamilyClass: 2053
OS2Vendor: 'HP  '
OS2CodePages: 00000093.00000000
OS2UnicodeRanges: 00000000.00000000.00000000.00000000
DEI: 91125
TtTable: prep
NPUSHW
 14
 30
 0
 31
 64
 89
 65
 43
 69
 42
 80
 41
 16
 6
 67
LOOPCALL
PUSHB_2
 30
 24
MPPEM
GTEQ
WS
PUSHB_2
 3
 3
SDS
NPUSHB
 3
 138
 57
 1
DELTAC1
NPUSHB
 13
 41
 57
 73
 68
 106
 57
 104
 68
 168
 57
 217
 57
 6
DELTAC2
NPUSHB
 3
 26
 57
 1
DELTAC3
SDS
PUSHB_3
 57
 68
 57
RCVT
SWAP
CALL
WCVTP
PUSHB_8
 50
 82
 59
 72
 68
 57
 6
 8
LOOPCALL
PUSHB_2
 3
 2
SDS
NPUSHB
 17
 152
 100
 150
 101
 168
 100
 166
 101
 184
 100
 182
 101
 200
 100
 198
 101
 8
DELTAC1
NPUSHB
 5
 72
 100
 247
 100
 2
DELTAC2
NPUSHB
 7
 22
 101
 152
 100
 180
 101
 3
DELTAC3
PUSHB_1
 65
SDB
NPUSHB
 15
 7
 101
 7
 102
 7
 103
 7
 168
 7
 179
 7
 146
 7
 157
 7
DELTAC1
PUSHB_1
 9
SDB
SDS
PUSHW_2
 26
 100
RCVT
WS
PUSHW_3
 109
 105
 110
RCVT
ROLL
RCVT
ROLL
RCVT
PUSHW_1
 104
RCVT
PUSHW_3
 280
 108
 283
RCVT
ROLL

StartChar: A
Encoding: 65 65 0
Width: 1366
Flags: W
LayerCount: 2
Fore
SplineSet
29 0 m 1,0,-1
 584 1470 l 1,1,-1
 697 1470 l 1,2,-1
 811 1470 l 1,3,-1
 1339 0 l 1,4,-1
 1339 0 l 1,5,-1
 1232 0 l 1,6,-1
 1125 0 l 1,7,-1
 1125 0 l 1,8,-1
 976 426 l 1,9,-1
 976 426 l 1,10,-1
 388 426 l 1,11,-1
 388 426 l 1,12,-1
 234 0 l 1,13,-1
 234 0 l 1,14,-1
 132 0 l 1,15,-1
 29 0 l 1,16,-1
 29 0 l 1,0,-1
688 1254 m 1,17,-1
 452 602 l 1,18,-1
 452 602 l 1,19,-1
 915 602 l 1,20,-1
 915 602 l 1,21,-1
 688 1254 l 1,22,-1
 688 1254 l 1,23,-1
 688 1254 l 1,17,-1
EndSplineSet
EndChar

StartChar: B
Encoding: 66 66 1
Width: 1366
Flags: W
LayerCount: 2
Fore
SplineSet
152 0 m 1,0,-1
 152 1470 l 1,1,-1
 152 1470 l 1,2,-1
 251 1470 l 1,3,-1
 251 1470 l 1,4,-1
 798 1470 l 2,5,6
 986 1470 986 1470 1101 1373.5 c 128,-1,7
 1216 1277 1216 1277 1216 1119 c 0,8,9
 1216 936 1216 936 1080 833 c 0,10,11
 1049 809 1049 809 1013 792 c 1,12,-1
 1013 792 l 1,13,14
 1086 766 1086 766 1140 727 c 0,15,16
 1284 622 1284 622 1284 436 c 0,17,18
 1284 231 1284 231 1143.5 115.5 c 128,-1,19
 1003 0 1003 0 753 0 c 2,20,-1
 251 0 l 1,21,-1
 251 0 l 1,22,-1
 152 0 l 1,23,-1
 152 0 l 1,0,-1
351 1300 m 1,24,-1
 351 844 l 1,25,-1
 351 844 l 1,26,-1
 706 844 l 2,27,28
 868 844 868 844 943 902.5 c 128,-1,29
 1018 961 1018 961 1018 1087 c 0,30,31
 1018 1197 1018 1197 949 1248.5 c 128,-1,32
 880 1300 880 1300 732 1300 c 2,33,-1
 351 1300 l 1,34,-1
 351 1300 l 1,24,-1
351 683 m 1,35,-1
 351 170 l 1,36,-1
 351 170 l 1,37,-1
 756 170 l 2,38,39
 927 170 927 170 1006.5 236 c 128,-1,40
 1086 302 1086 302 1086 444 c 0,41,42
 1086 568 1086 568 1003 625.5 c 128,-1,43
 920 683 920 683 742 683 c 2,44,-1
 351 683 l 1,45,-1
 351 683 l 1,35,-1
EndSplineSet
EndChar

StartChar: C
Encoding: 67 67 2
Width: 1479
Flags: W
LayerCount: 2
Fore
SplineSet
1395 541 m 1,0,-1
 1395 541 l 1,1,2
 1357 269 1357 269 1186.5 114.5 c 128,-1,3
 1016 -40 1016 -40 755 -40 c 0,4,5
 451 -40 451 -40 270.5 169.5 c 128,-1,6
 90 379 90 379 90 734 c 256,7,8
 90 1089 90 1089 277.5 1299.5 c 128,-1,9
 465 1510 465 1510 781 1510 c 0,10,11
 1030 1510 1030 1510 1190 1382 c 128,-1,12
 1350 1254 1350 1254 1382 1029 c 1,13,-1
 1382 1029 l 1,14,-1
 1190 1029 l 1,15,-1
 1190 1029 l 1,16,17
 1162 1175 1162 1175 1054.5 1254.5 c 128,-1,18
 947 1334 947 1334 778 1334 c 0,19,20
 557 1334 557 1334 426 1171.5 c 128,-1,21
 295 1009 295 1009 295 734 c 0,22,23
 295 442 295 442 416.5 289 c 128,-1,24
 538 136 538 136 769 136 c 0,25,26
 940 136 940 136 1053 241.5 c 128,-1,27
 1166 347 1166 347 1203 541 c 1,28,-1
 1203 541 l 1,29,-1
 1395 541 l 1,0,-1
EndSplineSet
EndChar

StartChar: D
Encoding: 68 68 3
Width: 1479
Flags: W
LayerCount: 2
Fore
SplineSet
166 0 m 1,0,-1
 166 1470 l 1,1,-1
 166 1470 l 1,2,-1
 265 1470 l 1,3,-1
 265 1470 l 1,4,-1
 770 1470 l 2,5,6
 1050 1470 1050 1470 1215.5 1270.5 c 128,-1,7
 1381 1071 1381 1071 1381 734 c 0,8,9
 1381 398 1381 398 1211.5 199 c 128,-1,10
 1042 0 1042 0 754 0 c 2,11,-1
 265 0 l 1,12,-1
 265 0 l 1,13,-1
 166 0 l 1,14,-1
 166 0 l 1,0,-1
365 170 m 1,15,-1
 365 170 l 1,16,-1
 729 170 l 2,17,18
 943 170 943 170 1059.5 317 c 128,-1,19
 1176 464 1176 464 1176 734 c 0,20,21
 1176 1005 1176 1005 1064 1152.5 c 128,-1,22
 952 1300 952 1300 746 1300 c 2,23,-1
 365 1300 l 1,24,-1
 365 1300 l 1,25,-1
 365 170 l 1,15,-1
EndSplineSet
EndChar

StartChar: E
Encoding: 69 69 4
Width: 1366
Flags: W
LayerCount: 2
Fore
SplineSet
176 0 m 1,0,-1
 176 0 l 1,1,-1
 176 1470 l 1,2,-1
 176 1470 l 1,3,-1
 1251 1470 l 1,4,-1
 1251 1470 l 1,5,-1
 1251 1382 l 1,6,-1
 1251 1294 l 1,7,-1
 1251 1294 l 1,8,-1
 375 1294 l 1,9,-1
 375 1294 l 1,10,-1
 375 845 l 1,11,-1
 375 845 l 1,12,-1
 1175 845 l 1,13,-1
 1175 757 l 1,14,-1
 1175 669 l 1,15,-1
 1175 669 l 1,16,-1
 375 669 l 1,17,-1
 375 669 l 1,18,-1
 375 176 l 1,19,-1
 375 176 l 1,20,-1
 1262 176 l 1,21,-1
 1262 176 l 1,22,-1
 1262 88 l 1,23,-1
 1262 0 l 1,24,-1
 1262 0 l 1,25,-1
 176 0 l 1,0,-1
EndSplineSet
EndChar

StartChar: F
Encoding: 70 70 5
Width: 1251
Flags: W
LayerCount: 2
Fore
SplineSet
176 0 m 1,0,-1
 176 1470 l 1,1,-1
 176 1470 l 1,2,-1
 1194 1470 l 1,3,-1
 1194 1470 l 1,4,-1
 1194 1382 l 1,5,-1
 1194 1294 l 1,6,-1
 1194 1294 l 1,7,-1
 375 1294 l 1,8,-1
 375 1294 l 1,9,-1
 375 845 l 1,10,-1
 375 845 l 1,11,-1
 1092 845 l 1,12,-1
 1092 757 l 1,13,-1
 1092 669 l 1,14,-1
 1092 669 l 1,15,-1
 375 669 l 1,16,-1
 375 669 l 1,17,-1
 375 0 l 1,18,-1
 276 0 l 1,19,-1
 176 0 l 1,0,-1
EndSplineSet
EndChar

StartChar: G
Encoding: 71 71 6
Width: 1593
Flags: W
LayerCount: 2
Fore
SplineSet
782 -40 m 0,0,1
 476 -40 476 -40 287 173.5 c 128,-1,2
 98 387 98 387 98 734 c 0,3,4
 98 1082 98 1082 291 1296 c 128,-1,5
 484 1510 484 1510 796 1510 c 0,6,7
 1037 1510 1037 1510 1210.5 1375 c 128,-1,8
 1384 1240 1384 1240 1414 1029 c 1,9,-1
 1414 1029 l 1,10,-1
 1222 1029 l 1,11,-1
 1222 1029 l 1,12,13
 1194 1175 1194 1175 1080 1254.5 c 128,-1,14
 966 1334 966 1334 784 1334 c 0,15,16
 569 1334 569 1334 436 1167.5 c 128,-1,17
 303 1001 303 1001 303 731 c 0,18,19
 303 444 303 444 431.5 287 c 128,-1,20
 560 130 560 130 794 130 c 0,21,22
 1021 130 1021 130 1161 296 c 0,23,24
 1183 322 1183 322 1201 351 c 0,25,26
 1225 390 1225 390 1241.5 460 c 128,-1,27
 1258 530 1258 530 1258 593 c 2,28,-1
 1258 611 l 1,29,-1
 1258 611 l 1,30,-1
 797 611 l 1,31,-1
 797 779 l 1,32,-1
 1441 779 l 1,33,-1
 1441 1 l 1,34,-1
 1317 1 l 1,35,-1
 1269 186 l 1,36,-1
 1269 186 l 1,37,-1
 1258 173 l 2,38,39
 1077 -40 1077 -40 782 -40 c 0,0,1
EndSplineSet
EndChar

StartChar: H
Encoding: 72 72 7
Width: 1479
Flags: W
LayerCount: 2
Fore
SplineSet
158 0 m 1,0,-1
 158 1470 l 1,1,-1
 158 1470 l 1,2,-1
 257 1470 l 1,3,-1
 357 1470 l 1,4,-1
 357 1470 l 1,5,-1
 357 867 l 1,6,-1
 357 867 l 1,7,-1
 1124 867 l 1,8,-1
 1124 867 l 1,9,-1
 1124 1470 l 1,10,-1
 1124 1470 l 1,11,-1
 1223 1470 l 1,12,-1
 1323 1470 l 1,13,-1
 1323 1470 l 1,14,-1
 1323 0 l 1,15,-1
 1323 0 l 1,16,-1
 1224 0 l 1,17,-1
 1124 0 l 1,18,-1
 1124 0 l 1,19,-1
 1124 691 l 1,20,-1
 1124 691 l 1,21,-1
 357 691 l 1,22,-1
 357 691 l 1,23,-1
 357 0 l 1,24,-1
 357 0 l 1,25,-1
 258 0 l 1,26,-1
 158 0 l 1,27,-1
 158 0 l 1,0,-1
EndSplineSet
EndChar

StartChar: I
Encoding: 73 73 8
Width: 569
Flags: W
LayerCount: 2
Fore
SplineSet
186 0 m 1,0,-1
 186 1470 l 1,1,-1
 186 1470 l 1,2,-1
 285 1470 l 1,3,-1
 385 1470 l 1,4,-1
 385 1470 l 1,5,-1
 385 0 l 1,6,-1
 385 0 l 1,7,-1
 286 0 l 1,8,-1
 186 0 l 1,9,-1
 186 0 l 1,0,-1
EndSplineSet
EndChar

StartChar: J
Encoding: 74 74 9
Width: 1024
Flags: W
LayerCount: 2
Fore
SplineSet
678 1470 m 1,0,-1
 678 1470 l 1,1,-1
 777 1470 l 1,2,-1
 877 1470 l 1,3,-1
 877 1470 l 1,4,-1
 877 413 l 2,5,6
 877 196 877 196 767.5 78 c 128,-1,7
 658 -40 658 -40 456 -40 c 0,8,9
 250 -40 250 -40 138 70 c 128,-1,10
 26 180 26 180 35 373 c 1,11,-1
 35 475 l 1,12,-1
 221 475 l 1,13,-1
 221 373 l 2,14,15
 221 256 221 256 279 192.5 c 128,-1,16
 337 129 337 129 444 129 c 0,17,18
 552 129 552 129 615 205.5 c 128,-1,19
 678 282 678 282 678 413 c 1,20,-1
 678 413 l 1,21,-1
 678 1470 l 1,0,-1
EndSplineSet
EndChar

StartChar: K
Encoding: 75 75 10
Width: 1366
Flags: W
LayerCount: 2
Fore
SplineSet
156 0 m 1,0,-1
 156 1470 l 1,1,-1
 156 1470 l 1,2,-1
 255 1470 l 1,3,-1
 355 1470 l 1,4,-1
 355 1470 l 1,5,-1
 355 756 l 1,6,-1
 355 756 l 1,7,-1
 1071 1470 l 1,8,-1
 1071 1470 l 1,9,-1
 1208 1470 l 1,10,-1
 1346 1470 l 1,11,-1
 1346 1470 l 1,12,-1
 723 869 l 1,13,-1
 723 869 l 1,14,-1
 1358 0 l 1,15,-1
 1358 0 l 1,16,-1
 1229 0 l 1,17,-1
 1099 0 l 1,18,-1
 1099 0 l 1,19,-1
 577 727 l 1,20,-1
 577 727 l 1,21,-1
 355 513 l 1,22,-1
 355 513 l 1,23,-1
 355 0 l 1,24,-1
 355 0 l 1,25,-1
 256 0 l 1,26,-1
 156 0 l 1,27,-1
 156 0 l 1,0,-1
EndSplineSet
EndChar

StartChar: L
Encoding: 76 76 11
Width: 1139
Flags: W
LayerCount: 2
Fore
SplineSet
156 0 m 1,0,-1
 156 0 l 1,1,-1
 156 1470 l 1,2,-1
 156 1470 l 1,3,-1
 255 1470 l 1,4,-1
 355 1470 l 1,5,-1
 355 1470 l 1,6,-1
 355 176 l 1,7,-1
 355 176 l 1,8,-1
 1100 176 l 1,9,-1
 1100 176 l 1,10,-1
 1100 88 l 1,11,-1
 1100 0 l 1,12,-1
 1100 0 l 1,13,-1
 156 0 l 1,0,-1
EndSplineSet
EndChar

StartChar: M
Encoding: 77 77 12
Width: 1706
Flags: W
LayerCount: 2
Fore
SplineSet
343 0 m 1,0,-1
 343 0 l 1,1,-1
 247 0 l 1,2,-1
 150 0 l 1,3,-1
 150 0 l 1,4,-1
 150 1470 l 1,5,-1
 150 1470 l 1,6,-1
 293 1470 l 1,7,-1
 436 1470 l 1,8,-1
 436 1470 l 1,9,-1
 856 219 l 1,10,-1
 856 219 l 1,11,-1
 856 219 l 1,12,-1
 1273 1470 l 1,13,-1
 1273 1470 l 1,14,-1
 1416 1470 l 1,15,-1
 1559 1470 l 1,16,-1
 1559 1470 l 1,17,-1
 1559 0 l 1,18,-1
 1559 0 l 1,19,-1
 1463 0 l 1,20,-1
 1366 0 l 1,21,-1
 1366 0 l 1,22,-1
 1366 1244 l 1,23,-1
 1366 1244 l 1,24,-1
 951 0 l 1,25,-1
 855 0 l 1,26,-1
 759 0 l 1,27,-1
 343 1240 l 1,28,-1
 343 1240 l 1,29,-1
 343 0 l 1,0,-1
EndSplineSet
EndChar

StartChar: N
Encoding: 78 78 13
Width: 1479
Flags: W
LayerCount: 2
Fore
SplineSet
348 0 m 1,0,-1
 348 0 l 1,1,-1
 252 0 l 1,2,-1
 156 0 l 1,3,-1
 156 0 l 1,4,-1
 156 1470 l 1,5,-1
 156 1470 l 1,6,-1
 275 1470 l 1,7,-1
 395 1470 l 1,8,-1
 395 1470 l 1,9,-1
 1131 275 l 1,10,-1
 1131 275 l 1,11,-1
 1131 275 l 1,12,-1
 1131 1470 l 1,13,-1
 1131 1470 l 1,14,-1
 1227 1470 l 1,15,-1
 1323 1470 l 1,16,-1
 1323 1470 l 1,17,-1
 1323 0 l 1,18,-1
 1214 0 l 1,19,-1
 1105 0 l 1,20,-1
 348 1199 l 1,21,-1
 348 1199 l 1,22,-1
 348 1199 l 1,23,-1
 348 0 l 1,0,-1
EndSplineSet
EndChar

StartChar: O
Encoding: 79 79 14
Width: 1593
Flags: W
LayerCount: 2
Fore
SplineSet
796 -40 m 1,0,1
 476 -40 476 -40 278 173.5 c 128,-1,2
 80 387 80 387 80 734 c 0,3,4
 80 1082 80 1082 278 1296 c 128,-1,5
 476 1510 476 1510 796 1510 c 0,6,7
 1118 1510 1118 1510 1315.5 1296 c 128,-1,8
 1513 1082 1513 1082 1513 734 c 0,9,10
 1513 387 1513 387 1315.5 173.5 c 128,-1,11
 1118 -40 1118 -40 796 -40 c 1,12,-1
 796 -40 l 1,0,1
796 136 m 1,13,14
 1026 136 1026 136 1167 301 c 128,-1,15
 1308 466 1308 466 1308 734 c 0,16,17
 1308 1003 1308 1003 1167 1168.5 c 128,-1,18
 1026 1334 1026 1334 796 1334 c 0,19,20
 567 1334 567 1334 426 1168.5 c 128,-1,21
 285 1003 285 1003 285 734 c 0,22,23
 285 466 285 466 426 301 c 128,-1,24
 567 136 567 136 796 136 c 1,25,-1
 796 136 l 1,13,14
EndSplineSet
EndChar

StartChar: P
Encoding: 80 80 15
Width: 1366
Flags: W
LayerCount: 2
Fore
SplineSet
176 0 m 1,0,-1
 176 1470 l 1,1,-1
 176 1470 l 1,2,-1
 275 1470 l 1,3,-1
 275 1470 l 1,4,-1
 819 1470 l 2,5,6
 1033 1470 1033 1470 1153.5 1362.5 c 128,-1,7
 1274 1255 1274 1255 1274 1065 c 0,8,9
 1274 856 1274 856 1153.5 738 c 128,-1,10
 1033 620 1033 620 819 620 c 0,11,12
 538 621 538 621 375 618 c 1,13,-1
 375 618 l 1,14,-1
 375 0 l 1,15,-1
 375 0 l 1,16,-1
 276 0 l 1,17,-1
 176 0 l 1,18,-1
 176 0 l 1,0,-1
375 790 m 1,19,-1
 375 790 l 1,20,-1
 770 790 l 2,21,22
 925 790 925 790 997 855.5 c 128,-1,23
 1069 921 1069 921 1069 1061 c 0,24,25
 1069 1185 1069 1185 997 1242.5 c 128,-1,26
 925 1300 925 1300 770 1300 c 2,27,-1
 375 1300 l 1,28,-1
 375 1300 l 1,29,-1
 375 790 l 1,19,-1
EndSplineSet
EndChar

StartChar: Q
Encoding: 81 81 16
Width: 1593
Flags: W
LayerCount: 2
Fore
SplineSet
1402 -112 m 1,0,-1
 1182 61 l 1,1,-1
 1182 61 l 1,2,3
 1018 -39 1018 -39 796 -40 c 0,4,5
 476 -40 476 -40 278 173.5 c 128,-1,6
 80 387 80 387 80 734 c 0,7,8
 80 1082 80 1082 278 1296 c 128,-1,9
 476 1510 476 1510 796 1510 c 0,10,11
 1118 1510 1118 1510 1315.5 1296 c 128,-1,12
 1513 1082 1513 1082 1513 734 c 0,13,14
 1513 387 1513 387 1315 173 c 1,15,-1
 1301 159 l 1,16,-1
 1301 159 l 1,17,-1
 1342 126 l 2,18,19
 1489 8 1489 8 1498 0 c 1,20,-1
 1402 -112 l 1,0,-1
868 308 m 1,21,-1
 964 428 l 1,22,-1
 1148 281 l 1,23,-1
 1148 281 l 1,24,-1
 1167 301 l 1,25,26
 1308 466 1308 466 1308 734 c 0,27,28
 1308 1003 1308 1003 1167 1168.5 c 128,-1,29
 1026 1334 1026 1334 796 1334 c 0,30,31
 567 1334 567 1334 426 1168.5 c 128,-1,32
 285 1003 285 1003 285 734 c 0,33,34
 285 466 285 466 426 301 c 128,-1,35
 567 136 567 136 796 136 c 0,36,37
 924 138 924 138 1024 185 c 1,38,-1
 1024 185 l 1,39,-1
 868 308 l 1,21,-1
EndSplineSet
EndChar

StartChar: R
Encoding: 82 82 17
Width: 1479
Flags: W
LayerCount: 2
Fore
SplineSet
180 0 m 1,0,-1
 180 1470 l 1,1,-1
 180 1470 l 1,2,-1
 279 1470 l 1,3,-1
 279 1470 l 1,4,-1
 864 1470 l 2,5,6
 1098 1470 1098 1470 1220 1368.5 c 128,-1,7
 1342 1267 1342 1267 1342 1071 c 0,8,9
 1342 878 1342 878 1215 769 c 0,10,11
 1183 742 1183 742 1146 721 c 1,12,-1
 1146 721 l 1,13,-1
 1179 705 l 1,14,15
 1313 628 1313 628 1318 446 c 2,16,-1
 1326 178 l 2,17,18
 1328 112 1328 112 1343 83 c 128,-1,19
 1358 54 1358 54 1401 33 c 1,20,-1
 1401 1 l 1,21,-1
 1156 1 l 1,22,23
 1148 19 1148 19 1140 95 c 128,-1,24
 1132 171 1132 171 1128 264 c 2,25,-1
 1124 380 l 2,26,27
 1120 517 1120 517 1057 575.5 c 128,-1,28
 994 634 994 634 851 634 c 2,29,-1
 379 634 l 1,30,-1
 379 634 l 1,31,-1
 379 0 l 1,32,-1
 379 0 l 1,33,-1
 280 0 l 1,34,-1
 180 0 l 1,35,-1
 180 0 l 1,0,-1
379 806 m 1,36,-1
 379 806 l 1,37,-1
 871 806 l 2,38,39
 1009 806 1009 806 1073 866.5 c 128,-1,40
 1137 927 1137 927 1137 1058 c 0,41,42
 1137 1185 1137 1185 1069.5 1244 c 128,-1,43
 1002 1303 1002 1303 856 1303 c 2,44,-1
 379 1303 l 1,45,-1
 379 1303 l 1,46,-1
 379 806 l 1,36,-1
EndSplineSet
EndChar

StartChar: S
Encoding: 83 83 18
Width: 1366
Flags: W
LayerCount: 2
Fore
SplineSet
1052 1044 m 1,0,-1
 1052 1044 l 1,1,2
 1039 1183 1039 1183 942.5 1258.5 c 128,-1,3
 846 1334 846 1334 683 1334 c 0,4,5
 515 1334 515 1334 428 1269 c 128,-1,6
 341 1204 341 1204 341 1079 c 0,7,8
 341 994 341 994 399 952 c 256,9,10
 457 910 457 910 632 869 c 2,11,-1
 888 808 l 2,12,13
 1094 759 1094 759 1182 663 c 0,14,15
 1270 568 1270 568 1270 394 c 0,16,17
 1270 194 1270 194 1118.5 77 c 128,-1,18
 967 -40 967 -40 708 -40 c 0,19,20
 420 -40 420 -40 258 95 c 0,21,22
 100 228 100 228 100 459 c 2,23,-1
 100 470 l 1,24,-1
 100 470 l 1,25,-1
 283 470 l 1,26,-1
 283 470 l 1,27,28
 288 310 288 310 399 223 c 128,-1,29
 510 136 510 136 708 136 c 0,30,31
 891 136 891 136 986 199 c 128,-1,32
 1081 262 1081 262 1081 384 c 0,33,34
 1081 490 1081 490 1018 541 c 0,35,36
 956 591 956 591 768 636 c 2,37,-1
 512 697 l 2,38,39
 318 743 318 743 235 825 c 256,40,41
 152 907 152 907 152 1052 c 0,42,43
 152 1263 152 1263 295.5 1386.5 c 128,-1,44
 439 1510 439 1510 683 1510 c 0,45,46
 931 1510 931 1510 1078 1386 c 128,-1,47
 1225 1262 1225 1262 1235 1044 c 1,48,-1
 1235 1044 l 1,49,-1
 1052 1044 l 1,0,-1
EndSplineSet
EndChar

StartChar: T
Encoding: 84 84 19
Width: 1251
Flags: W
LayerCount: 2
Fore
SplineSet
526 0 m 1,0,-1
 526 1294 l 1,1,-1
 526 1294 l 1,2,-1
 29 1294 l 1,3,-1
 29 1294 l 1,4,-1
 29 1382 l 1,5,-1
 29 1470 l 1,6,-1
 29 1470 l 1,7,-1
 1222 1470 l 1,8,-1
 1222 1470 l 1,9,-1
 1222 1382 l 1,10,-1
 1222 1294 l 1,11,-1
 1222 1294 l 1,12,-1
 725 1294 l 1,13,-1
 725 1294 l 1,14,-1
 725 0 l 1,15,-1
 725 0 l 1,16,-1
 626 0 l 1,17,-1
 526 0 l 1,18,-1
 526 0 l 1,0,-1
EndSplineSet
EndChar

StartChar: U
Encoding: 85 85 20
Width: 1479
Flags: W
LayerCount: 2
Fore
SplineSet
1319 539 m 2,0,1
 1319 267 1319 267 1166 113.5 c 128,-1,2
 1013 -40 1013 -40 741 -40 c 0,3,4
 458 -40 458 -40 310 107.5 c 128,-1,5
 162 255 162 255 162 539 c 2,6,-1
 162 1470 l 1,7,-1
 162 1470 l 1,8,-1
 261 1470 l 1,9,-1
 361 1470 l 1,10,-1
 361 1470 l 1,11,-1
 361 554 l 2,12,13
 361 349 361 349 458 242.5 c 128,-1,14
 555 136 555 136 741 136 c 256,15,16
 927 136 927 136 1023.5 242.5 c 128,-1,17
 1120 349 1120 349 1120 554 c 2,18,-1
 1120 1470 l 1,19,-1
 1120 1470 l 1,20,-1
 1219 1470 l 1,21,-1
 1319 1470 l 1,22,-1
 1319 1470 l 1,23,-1
 1319 539 l 2,0,1
EndSplineSet
EndChar

StartChar: V
Encoding: 86 86 21
Width: 1366
Flags: W
LayerCount: 2
Fore
SplineSet
41 1470 m 1,0,-1
 41 1470 l 1,1,-1
 151 1470 l 1,2,-1
 262 1470 l 1,3,-1
 262 1470 l 1,4,-1
 684 214 l 1,5,-1
 684 214 l 1,6,-1
 684 214 l 1,7,-1
 1105 1470 l 1,8,-1
 1105 1470 l 1,9,-1
 1215 1470 l 1,10,-1
 1325 1470 l 1,11,-1
 1325 1470 l 1,12,-1
 790 0 l 1,13,-1
 683 0 l 1,14,-1
 576 0 l 1,15,-1
 41 1470 l 1,0,-1
EndSplineSet
EndChar

StartChar: W
Encoding: 87 87 22
Width: 1933
Flags: W
LayerCount: 2
Fore
SplineSet
418 0 m 1,0,-1
 33 1470 l 1,1,-1
 33 1470 l 1,2,-1
 140 1470 l 1,3,-1
 248 1470 l 1,4,-1
 248 1470 l 1,5,-1
 510 308 l 2,6,7
 517 279 517 279 521.5 252.5 c 128,-1,8
 526 226 526 226 526 215 c 1,9,-1
 526 215 l 1,10,11
 526 228 526 228 531 255 c 128,-1,12
 536 282 536 282 543 308 c 2,13,-1
 854 1470 l 1,14,-1
 966 1470 l 1,15,-1
 1078 1470 l 1,16,-1
 1387 314 l 2,17,18
 1395 287 1395 287 1400 259 c 128,-1,19
 1405 231 1405 231 1405 218 c 1,20,-1
 1405 218 l 1,21,22
 1405 229 1405 229 1409.5 257 c 128,-1,23
 1414 285 1414 285 1421 314 c 2,24,-1
 1686 1470 l 1,25,-1
 1686 1470 l 1,26,-1
 1793 1470 l 1,27,-1
 1900 1470 l 1,28,-1
 1900 1470 l 1,29,-1
 1515 0 l 1,30,-1
 1408 0 l 1,31,-1
 1301 0 l 1,32,-1
 982 1137 l 2,33,34
 974 1166 974 1166 968 1194 c 128,-1,35
 962 1222 962 1222 962 1233 c 1,36,-1
 962 1233 l 1,37,38
 962 1220 962 1220 957 1192.5 c 128,-1,39
 952 1165 952 1165 944 1137 c 2,40,-1
 632 0 l 1,41,-1
 525 0 l 1,42,-1
 418 0 l 1,0,-1
EndSplineSet
EndChar

StartChar: X
Encoding: 88 88 23
Width: 1366
Flags: W
LayerCount: 2
Fore
SplineSet
39 0 m 1,0,-1
 561 734 l 1,1,-1
 561 734 l 1,2,-1
 72 1470 l 1,3,-1
 72 1470 l 1,4,-1
 195 1470 l 1,5,-1
 318 1470 l 1,6,-1
 318 1470 l 1,7,-1
 679 896 l 1,8,-1
 679 896 l 1,9,-1
 679 896 l 1,10,-1
 1067 1470 l 1,11,-1
 1067 1470 l 1,12,-1
 1186 1470 l 1,13,-1
 1306 1470 l 1,14,-1
 1306 1470 l 1,15,-1
 791 747 l 1,16,-1
 791 747 l 1,17,-1
 1327 0 l 1,18,-1
 1327 0 l 1,19,-1
 1205 0 l 1,20,-1
 1083 0 l 1,21,-1
 1083 0 l 1,22,-1
 680 591 l 1,23,-1
 680 591 l 1,24,-1
 680 591 l 1,25,-1
 281 0 l 1,26,-1
 281 0 l 1,27,-1
 160 0 l 1,28,-1
 39 0 l 1,29,-1
 39 0 l 1,0,-1
EndSplineSet
EndChar

StartChar: Y
Encoding: 89 89 24
Width: 1366
Flags: W
LayerCount: 2
Fore
SplineSet
584 588 m 1,0,-1
 584 588 l 1,1,-1
 29 1470 l 1,2,-1
 29 1470 l 1,3,-1
 145 1470 l 1,4,-1
 262 1470 l 1,5,-1
 262 1470 l 1,6,-1
 684 757 l 1,7,-1
 684 757 l 1,8,-1
 1107 1470 l 1,9,-1
 1107 1470 l 1,10,-1
 1222 1470 l 1,11,-1
 1337 1470 l 1,12,-1
 1337 1470 l 1,13,-1
 783 585 l 1,14,-1
 783 585 l 1,15,-1
 783 0 l 1,16,-1
 684 0 l 1,17,-1
 584 0 l 1,18,-1
 584 588 l 1,0,-1
EndSplineSet
EndChar

StartChar: Z
Encoding: 90 90 25
Width: 1251
Flags: W
LayerCount: 2
Fore
SplineSet
47 173 m 1,0,-1
 954 1294 l 1,1,-1
 954 1294 l 1,2,-1
 118 1294 l 1,3,-1
 118 1294 l 1,4,-1
 118 1382 l 1,5,-1
 118 1470 l 1,6,-1
 118 1470 l 1,7,-1
 1203 1470 l 1,8,-1
 1203 1384 l 1,9,-1
 1203 1297 l 1,10,-1
 296 176 l 1,11,-1
 296 176 l 1,12,-1
 1202 176 l 1,13,-1
 1202 176 l 1,14,-1
 1202 88 l 1,15,-1
 1202 0 l 1,16,-1
 1202 0 l 1,17,-1
 47 0 l 1,18,-1
 47 86 l 1,19,-1
 47 173 l 1,0,-1
EndSplineSet
EndChar

StartChar: a
Encoding: 97 97 26
Width: 1139
Flags: W
LayerCount: 2
Fore
SplineSet
415 -29 m 0,0,1
 258 -29 258 -29 166 55 c 128,-1,2
 74 139 74 139 74 282 c 0,3,4
 74 426 74 426 160.5 511 c 128,-1,5
 247 596 247 596 413 617 c 2,6,-1
 658 648 l 2,7,8
 688 651 688 651 715 658 c 0,9,10
 750 667 750 667 769 694 c 128,-1,11
 788 721 788 721 788 762 c 2,12,-1
 788 771 l 2,13,14
 788 857 788 857 723 905.5 c 128,-1,15
 658 954 658 954 542 954 c 0,16,17
 431 954 431 954 368.5 902.5 c 128,-1,18
 306 851 306 851 293 749 c 1,19,-1
 293 749 l 1,20,-1
 127 749 l 1,21,-1
 127 749 l 1,22,23
 140 925 140 925 251 1013.5 c 128,-1,24
 362 1102 362 1102 569 1102 c 0,25,26
 764 1102 764 1102 866 1017.5 c 128,-1,27
 968 933 968 933 968 771 c 2,28,-1
 968 183 l 2,29,30
 968 156 968 156 984.5 139.5 c 128,-1,31
 1001 123 1001 123 1029 123 c 0,32,33
 1037 123 1037 123 1052.5 125 c 128,-1,34
 1068 127 1068 127 1086 131 c 1,35,-1
 1086 1 l 1,36,37
 1060 -9 1060 -9 1031 -15 c 128,-1,38
 1002 -21 1002 -21 982 -21 c 0,39,40
 880 -21 880 -21 834 35 c 0,41,42
 804 72 804 72 791 140 c 1,43,-1
 791 140 l 1,44,45
 771 115 771 115 745 92 c 0,46,47
 610 -29 610 -29 415 -29 c 0,0,1
788 424 m 2,48,-1
 788 540 l 1,49,-1
 788 540 l 1,50,51
 738 516 738 516 677 507 c 2,52,-1
 512 483 l 2,53,54
 382 465 382 465 322 422.5 c 128,-1,55
 262 380 262 380 262 307 c 0,56,57
 262 217 262 217 311 168.5 c 128,-1,58
 360 120 360 120 450 120 c 0,59,60
 592 120 592 120 690 197 c 0,61,62
 757 251 757 251 779 319 c 0,63,64
 783 332 783 332 785 360 c 0,65,66
 788 389 788 389 788 424 c 2,48,-1
EndSplineSet
EndChar

StartChar: b
Encoding: 98 98 27
Width: 1139
Flags: W
LayerCount: 2
Fore
SplineSet
119 1470 m 1,0,-1
 119 1470 l 1,1,-1
 209 1470 l 1,2,-1
 299 1470 l 1,3,-1
 299 1470 l 1,4,-1
 299 931 l 1,5,-1
 299 931 l 1,6,7
 417 1104 417 1104 604 1102 c 0,8,9
 814 1102 814 1102 936.5 957.5 c 128,-1,10
 1059 813 1059 813 1059 567 c 0,11,12
 1059 288 1059 288 935.5 129.5 c 128,-1,13
 812 -29 812 -29 593 -29 c 0,14,15
 412 -29 412 -29 305 110 c 2,16,-1
 288 132 l 1,17,-1
 288 132 l 1,18,-1
 288 0 l 1,19,-1
 288 0 l 1,20,-1
 119 0 l 1,21,-1
 119 0 l 1,22,-1
 119 1470 l 1,0,-1
584 127 m 0,23,24
 725 127 725 127 798 233.5 c 128,-1,25
 871 340 871 340 871 544 c 0,26,27
 871 745 871 745 801 841.5 c 128,-1,28
 731 938 731 938 585 938 c 0,29,30
 436 938 436 938 367.5 829 c 128,-1,31
 299 720 299 720 299 484 c 1,32,-1
 299 484 l 1,33,-1
 299 484 l 1,34,-1
 299 484 l 1,35,36
 299 313 299 313 373 220 c 256,37,38
 447 127 447 127 584 127 c 0,23,24
EndSplineSet
EndChar

StartChar: c
Encoding: 99 99 28
Width: 1024
Flags: W
LayerCount: 2
Fore
SplineSet
977 385 m 1,0,-1
 977 385 l 1,1,2
 949 183 949 183 834 77 c 128,-1,3
 719 -29 719 -29 528 -29 c 0,4,5
 315 -29 315 -29 188 124 c 128,-1,6
 61 277 61 277 61 536 c 256,7,8
 61 795 61 795 192.5 948.5 c 128,-1,9
 324 1102 324 1102 546 1102 c 0,10,11
 739 1102 739 1102 854 996.5 c 128,-1,12
 969 891 969 891 977 706 c 1,13,-1
 977 706 l 1,14,-1
 804 706 l 1,15,-1
 804 706 l 1,16,17
 793 821 793 821 724 884 c 128,-1,18
 655 947 655 947 540 947 c 0,19,20
 404 947 404 947 326.5 837.5 c 128,-1,21
 249 728 249 728 249 536 c 0,22,23
 249 332 249 332 321 229 c 128,-1,24
 393 126 393 126 535 126 c 0,25,26
 640 126 640 126 710.5 193.5 c 128,-1,27
 781 261 781 261 804 385 c 1,28,-1
 804 385 l 1,29,-1
 977 385 l 1,0,-1
EndSplineSet
EndChar

StartChar: d
Encoding: 100 100 29
Width: 1139
Flags: W
LayerCount: 2
Fore
SplineSet
541 -29 m 0,0,1
 326 -29 326 -29 199 131.5 c 128,-1,2
 72 292 72 292 72 565 c 0,3,4
 72 806 72 806 195 954 c 128,-1,5
 318 1102 318 1102 516 1102 c 0,6,7
 713 1102 713 1102 828 935 c 2,8,-1
 842 915 l 1,9,-1
 842 915 l 1,10,-1
 842 1470 l 1,11,-1
 842 1470 l 1,12,-1
 932 1470 l 1,13,-1
 1022 1470 l 1,14,-1
 1022 1470 l 1,15,-1
 1022 0 l 1,16,-1
 1022 0 l 1,17,-1
 939 0 l 1,18,-1
 855 0 l 1,19,-1
 855 0 l 1,20,-1
 855 146 l 1,21,-1
 855 146 l 1,22,-1
 832 113 l 1,23,24
 721 -29 721 -29 541 -29 c 0,0,1
551 940 m 0,25,26
 400 940 400 940 330 843.5 c 128,-1,27
 260 747 260 747 260 537 c 0,28,29
 260 339 260 339 335.5 232 c 128,-1,30
 411 125 411 125 551 125 c 0,31,32
 682 125 682 125 762 223.5 c 128,-1,33
 842 322 842 322 842 484 c 0,34,35
 842 703 842 703 766.5 821.5 c 128,-1,36
 691 940 691 940 551 940 c 0,25,26
EndSplineSet
EndChar

StartChar: e
Encoding: 101 101 30
Width: 1139
Flags: W
LayerCount: 2
Fore
SplineSet
569 -29 m 0,0,1
 342 -29 342 -29 212 115 c 128,-1,2
 82 259 82 259 82 513 c 0,3,4
 82 783 82 783 219.5 942.5 c 128,-1,5
 357 1102 357 1102 589 1102 c 0,6,7
 799 1102 799 1102 928 946 c 128,-1,8
 1057 790 1057 790 1057 536 c 1,9,-1
 1055 472 l 1,10,-1
 1055 472 l 1,11,-1
 273 472 l 1,12,-1
 273 472 l 1,13,14
 284 312 284 312 346 228 c 0,15,16
 422 126 422 126 586 126 c 0,17,18
 689 126 689 126 766 184 c 128,-1,19
 843 242 843 242 860 332 c 1,20,-1
 860 332 l 1,21,-1
 1038 332 l 1,22,-1
 1038 332 l 1,23,24
 998 156 998 156 878 63.5 c 128,-1,25
 758 -29 758 -29 569 -29 c 0,0,1
869 617 m 1,26,-1
 869 617 l 1,27,28
 861 766 861 766 795 849 c 0,29,30
 722 941 722 941 581 941 c 0,31,32
 439 941 439 941 354 835 c 0,33,34
 287 752 287 752 273 617 c 1,35,-1
 273 617 l 1,36,-1
 869 617 l 1,26,-1
EndSplineSet
EndChar

StartChar: f
Encoding: 102 102 31
Width: 569
Flags: W
LayerCount: 2
Fore
SplineSet
357 921 m 1,0,-1
 357 921 l 1,1,-1
 357 0 l 1,2,-1
 357 0 l 1,3,-1
 267 0 l 1,4,-1
 177 0 l 1,5,-1
 177 0 l 1,6,-1
 177 921 l 1,7,-1
 177 921 l 1,8,-1
 29 921 l 1,9,-1
 29 1070 l 1,10,-1
 177 1070 l 1,11,-1
 177 1070 l 1,12,-1
 177 1252 l 2,13,14
 177 1371 177 1371 247 1431 c 128,-1,15
 317 1491 317 1491 457 1491 c 1,16,-1
 536 1488 l 1,17,-1
 536 1326 l 1,18,-1
 465 1329 l 2,19,20
 413 1329 413 1329 385 1295.5 c 128,-1,21
 357 1262 357 1262 357 1200 c 2,22,-1
 357 1070 l 1,23,-1
 357 1070 l 1,24,-1
 536 1070 l 1,25,-1
 536 921 l 1,26,-1
 357 921 l 1,0,-1
EndSplineSet
EndChar

StartChar: g
Encoding: 103 103 32
Width: 1139
Flags: W
LayerCount: 2
Fore
SplineSet
525 -303 m 0,0,1
 680 -303 680 -303 761 -205.5 c 128,-1,2
 842 -108 842 -108 842 79 c 2,3,-1
 842 114 l 1,4,-1
 841 113 l 1,5,6
 730 -29 730 -29 551 -29 c 0,7,8
 336 -29 336 -29 209 131.5 c 128,-1,9
 82 292 82 292 82 565 c 0,10,11
 82 806 82 806 207 954 c 128,-1,12
 332 1102 332 1102 534 1102 c 0,13,14
 727 1102 727 1102 840 935 c 2,15,-1
 853 916 l 1,16,-1
 853 916 l 1,17,-1
 853 1070 l 1,18,-1
 853 1070 l 1,19,-1
 1022 1070 l 1,20,-1
 1022 79 l 2,21,22
 1021 -192 1021 -192 900 -322 c 128,-1,23
 779 -452 779 -452 528 -452 c 0,24,25
 346 -452 346 -452 239 -368 c 128,-1,26
 132 -284 132 -284 110 -124 c 1,27,-1
 110 -124 l 1,28,-1
 294 -124 l 1,29,-1
 294 -124 l 1,30,31
 310 -210 310 -210 370.5 -256.5 c 128,-1,32
 431 -303 431 -303 525 -303 c 0,0,1
560 938 m 0,33,34
 409 938 409 938 339.5 842 c 128,-1,35
 270 746 270 746 270 537 c 0,36,37
 270 340 270 340 345.5 233.5 c 128,-1,38
 421 127 421 127 560 127 c 0,39,40
 691 127 691 127 771 225 c 128,-1,41
 851 323 851 323 851 484 c 0,42,43
 851 711 851 711 778.5 824.5 c 128,-1,44
 706 938 706 938 560 938 c 0,33,34
EndSplineSet
EndChar

StartChar: h
Encoding: 104 104 33
Width: 1139
Flags: W
LayerCount: 2
Fore
SplineSet
133 0 m 1,0,-1
 133 1470 l 1,1,-1
 133 1470 l 1,2,-1
 223 1470 l 1,3,-1
 313 1470 l 1,4,-1
 313 1470 l 1,5,-1
 313 925 l 1,6,-1
 313 925 l 1,7,-1
 313 925 l 1,8,-1
 344 965 l 1,9,10
 461 1102 461 1102 637 1102 c 0,11,12
 814 1102 814 1102 910 1006 c 128,-1,13
 1006 910 1006 910 1006 733 c 2,14,-1
 1006 0 l 1,15,-1
 1006 0 l 1,16,-1
 916 0 l 1,17,-1
 826 0 l 1,18,-1
 826 0 l 1,19,-1
 826 688 l 2,20,21
 826 821 826 821 775 879.5 c 128,-1,22
 724 938 724 938 609 938 c 0,23,24
 473 938 473 938 393 839.5 c 128,-1,25
 313 741 313 741 313 573 c 1,26,-1
 313 573 l 1,27,-1
 313 0 l 1,28,-1
 313 0 l 1,29,-1
 223 0 l 1,30,-1
 133 0 l 1,31,-1
 133 0 l 1,0,-1
EndSplineSet
EndChar

StartChar: i
Encoding: 105 105 34
Width: 455
Flags: W
LayerCount: 2
Fore
SplineSet
139 0 m 1,0,-1
 139 1070 l 1,1,-1
 139 1070 l 1,2,-1
 229 1070 l 1,3,-1
 319 1070 l 1,4,-1
 319 1070 l 1,5,-1
 319 0 l 1,6,-1
 319 0 l 1,7,-1
 229 0 l 1,8,-1
 139 0 l 1,9,-1
 139 0 l 1,0,-1
137 1470 m 1,10,-1
 321 1470 l 1,11,-1
 321 1266 l 1,12,-1
 137 1266 l 1,13,-1
 137 1470 l 1,10,-1
EndSplineSet
EndChar

StartChar: j
Encoding: 106 106 35
Width: 455
Flags: W
LayerCount: 2
Fore
SplineSet
136 1070 m 1,0,-1
 136 1070 l 1,1,-1
 226 1070 l 1,2,-1
 316 1070 l 1,3,-1
 316 1070 l 1,4,-1
 316 -146 l 2,5,6
 316 -295 316 -295 252 -361 c 128,-1,7
 188 -427 188 -427 44 -427 c 0,8,9
 3 -427 3 -427 -32 -422 c 1,10,-1
 -32 -265 l 1,11,-1
 3 -265 l 2,12,13
 81 -265 81 -265 108.5 -240.5 c 128,-1,14
 136 -216 136 -216 136 -146 c 1,15,-1
 136 -146 l 1,16,-1
 136 1070 l 1,0,-1
134 1470 m 1,17,-1
 318 1470 l 1,18,-1
 318 1266 l 1,19,-1
 134 1266 l 1,20,-1
 134 1470 l 1,17,-1
EndSplineSet
EndChar

StartChar: k
Encoding: 107 107 36
Width: 1024
Flags: W
LayerCount: 2
Fore
SplineSet
137 0 m 1,0,-1
 137 1470 l 1,1,-1
 137 1470 l 1,2,-1
 227 1470 l 1,3,-1
 317 1470 l 1,4,-1
 317 1470 l 1,5,-1
 317 623 l 1,6,-1
 317 623 l 1,7,-1
 769 1070 l 1,8,-1
 769 1070 l 1,9,-1
 883 1070 l 1,10,-1
 998 1070 l 1,11,-1
 998 1070 l 1,12,-1
 591 673 l 1,13,-1
 591 673 l 1,14,-1
 1025 0 l 1,15,-1
 1025 0 l 1,16,-1
 908 0 l 1,17,-1
 790 0 l 1,18,-1
 790 0 l 1,19,-1
 458 544 l 1,20,-1
 458 544 l 1,21,-1
 317 406 l 1,22,-1
 317 406 l 1,23,-1
 317 0 l 1,24,-1
 317 0 l 1,25,-1
 227 0 l 1,26,-1
 137 0 l 1,27,-1
 137 0 l 1,0,-1
EndSplineSet
EndChar

StartChar: l
Encoding: 108 108 37
Width: 455
Flags: W
LayerCount: 2
Fore
SplineSet
137 0 m 1,0,-1
 137 1470 l 1,1,-1
 137 1470 l 1,2,-1
 227 1470 l 1,3,-1
 317 1470 l 1,4,-1
 317 1470 l 1,5,-1
 317 0 l 1,6,-1
 317 0 l 1,7,-1
 227 0 l 1,8,-1
 137 0 l 1,9,-1
 137 0 l 1,0,-1
EndSplineSet
EndChar

StartChar: m
Encoding: 109 109 38
Width: 1706
Flags: W
LayerCount: 2
Fore
SplineSet
133 0 m 1,0,-1
 133 1070 l 1,1,-1
 133 1070 l 1,2,-1
 218 1070 l 1,3,-1
 304 1070 l 1,4,-1
 304 1070 l 1,5,-1
 304 911 l 1,6,-1
 304 911 l 1,7,-1
 304 911 l 1,8,-1
 341 959 l 1,9,10
 462 1102 462 1102 630 1102 c 0,11,12
 774 1102 774 1102 859 1017 c 0,13,14
 897 979 897 979 918 930 c 1,15,-1
 918 930 l 1,16,-1
 947 967 l 1,17,18
 1063 1102 1063 1102 1224 1102 c 0,19,20
 1392 1102 1392 1102 1483.5 1010.5 c 128,-1,21
 1575 919 1575 919 1575 751 c 2,22,-1
 1575 0 l 1,23,-1
 1575 0 l 1,24,-1
 1485 0 l 1,25,-1
 1395 0 l 1,26,-1
 1395 0 l 1,27,-1
 1395 690 l 2,28,29
 1395 812 1395 812 1345 875 c 128,-1,30
 1295 938 1295 938 1199 938 c 0,31,32
 1082 938 1082 938 1013 847 c 128,-1,33
 944 756 944 756 944 601 c 1,34,-1
 944 601 l 1,35,-1
 944 0 l 1,36,-1
 944 0 l 1,37,-1
 854 0 l 1,38,-1
 764 0 l 1,39,-1
 764 0 l 1,40,-1
 764 733 l 2,41,42
 764 833 764 833 718.5 885.5 c 128,-1,43
 673 938 673 938 586 938 c 0,44,45
 466 938 466 938 389.5 836 c 128,-1,46
 313 734 313 734 313 573 c 1,47,-1
 313 573 l 1,48,-1
 313 0 l 1,49,-1
 313 0 l 1,50,-1
 223 0 l 1,51,-1
 133 0 l 1,52,-1
 133 0 l 1,0,-1
EndSplineSet
EndChar

StartChar: n
Encoding: 110 110 39
Width: 1139
Flags: W
LayerCount: 2
Fore
SplineSet
133 0 m 1,0,-1
 133 1070 l 1,1,-1
 133 1070 l 1,2,-1
 218 1070 l 1,3,-1
 304 1070 l 1,4,-1
 304 1070 l 1,5,-1
 304 912 l 1,6,-1
 304 912 l 1,7,-1
 304 912 l 1,8,-1
 344 965 l 1,9,10
 461 1102 461 1102 637 1102 c 0,11,12
 814 1102 814 1102 910 1006 c 128,-1,13
 1006 910 1006 910 1006 733 c 2,14,-1
 1006 0 l 1,15,-1
 1006 0 l 1,16,-1
 916 0 l 1,17,-1
 826 0 l 1,18,-1
 826 0 l 1,19,-1
 826 672 l 2,20,21
 826 813 826 813 771.5 875.5 c 128,-1,22
 717 938 717 938 595 938 c 0,23,24
 465 938 465 938 389 839.5 c 128,-1,25
 313 741 313 741 313 573 c 1,26,-1
 313 573 l 1,27,-1
 313 0 l 1,28,-1
 313 0 l 1,29,-1
 223 0 l 1,30,-1
 133 0 l 1,31,-1
 133 0 l 1,0,-1
EndSplineSet
EndChar

StartChar: o
Encoding: 111 111 40
Width: 1139
Flags: W
LayerCount: 2
Fore
SplineSet
569 -29 m 1,0,1
 347 -29 347 -29 209.5 127 c 128,-1,2
 72 283 72 283 72 536 c 0,3,4
 72 790 72 790 209.5 946 c 128,-1,5
 347 1102 347 1102 569 1102 c 0,6,7
 793 1102 793 1102 930 946 c 128,-1,8
 1067 790 1067 790 1067 536 c 0,9,10
 1067 283 1067 283 930 127 c 128,-1,11
 793 -29 793 -29 569 -29 c 1,12,-1
 569 -29 l 1,0,1
569 126 m 1,13,14
 711 126 711 126 795 237 c 128,-1,15
 879 348 879 348 879 536 c 256,16,17
 879 724 879 724 795 835.5 c 128,-1,18
 711 947 711 947 569 947 c 256,19,20
 427 947 427 947 343.5 835.5 c 128,-1,21
 260 724 260 724 260 536 c 256,22,23
 260 348 260 348 343.5 237 c 128,-1,24
 427 126 427 126 569 126 c 1,25,-1
 569 126 l 1,13,14
EndSplineSet
EndChar

StartChar: p
Encoding: 112 112 41
Width: 1139
Flags: W
LayerCount: 2
Fore
SplineSet
119 1070 m 1,0,-1
 119 1070 l 1,1,-1
 204 1070 l 1,2,-1
 290 1070 l 1,3,-1
 290 1070 l 1,4,-1
 290 918 l 1,5,-1
 290 918 l 1,6,-1
 299 931 l 2,7,8
 415 1102 415 1102 604 1102 c 0,9,10
 814 1102 814 1102 936.5 957.5 c 128,-1,11
 1059 813 1059 813 1059 567 c 0,12,13
 1059 288 1059 288 935.5 129.5 c 128,-1,14
 812 -29 812 -29 593 -29 c 0,15,16
 412 -29 412 -29 305 110 c 2,17,-1
 299 118 l 1,18,-1
 299 118 l 1,19,-1
 299 -423 l 1,20,-1
 299 -423 l 1,21,-1
 209 -423 l 1,22,-1
 119 -423 l 1,23,-1
 119 -423 l 1,24,-1
 119 1070 l 1,0,-1
584 127 m 0,25,26
 725 127 725 127 798 233.5 c 128,-1,27
 871 340 871 340 871 544 c 0,28,29
 871 745 871 745 801 841.5 c 128,-1,30
 731 938 731 938 585 938 c 0,31,32
 436 938 436 938 367.5 829 c 128,-1,33
 299 720 299 720 299 484 c 1,34,-1
 299 484 l 1,35,-1
 299 484 l 1,36,-1
 299 484 l 1,37,38
 299 313 299 313 373 220 c 128,-1,39
 447 127 447 127 584 127 c 0,25,26
EndSplineSet
EndChar

StartChar: q
Encoding: 113 113 42
Width: 1139
Flags: W
LayerCount: 2
Fore
SplineSet
536 -29 m 0,0,1
 323 -29 323 -29 197.5 131 c 128,-1,2
 72 291 72 291 72 564 c 0,3,4
 72 805 72 805 193.5 953.5 c 128,-1,5
 315 1102 315 1102 511 1102 c 0,6,7
 706 1102 706 1102 820 935 c 0,8,9
 833 917 833 917 843 896 c 1,10,-1
 843 896 l 1,11,-1
 843 1070 l 1,12,-1
 843 1070 l 1,13,-1
 1012 1070 l 1,14,-1
 1012 1070 l 1,15,-1
 1012 -423 l 1,16,-1
 1012 -423 l 1,17,-1
 922 -423 l 1,18,-1
 832 -423 l 1,19,-1
 832 -423 l 1,20,-1
 832 124 l 1,21,-1
 832 124 l 1,22,-1
 823 113 l 1,23,24
 713 -29 713 -29 536 -29 c 0,0,1
546 940 m 0,25,26
 397 940 397 940 328.5 843 c 128,-1,27
 260 746 260 746 260 536 c 0,28,29
 260 339 260 339 334 232 c 128,-1,30
 408 125 408 125 545 125 c 0,31,32
 674 125 674 125 753 223.5 c 128,-1,33
 832 322 832 322 832 484 c 0,34,35
 832 703 832 703 757.5 821.5 c 128,-1,36
 683 940 683 940 546 940 c 0,25,26
EndSplineSet
EndChar

StartChar: r
Encoding: 114 114 43
Width: 682
Flags: W
LayerCount: 2
Fore
SplineSet
158 0 m 1,0,-1
 158 1070 l 1,1,-1
 158 1070 l 1,2,-1
 243 1070 l 1,3,-1
 329 1070 l 1,4,-1
 329 1070 l 1,5,-1
 329 887 l 1,6,-1
 329 887 l 1,7,-1
 329 887 l 1,8,9
 352 930 352 930 378 965 c 0,10,11
 480 1102 480 1102 629 1102 c 0,12,13
 654 1102 654 1102 680 1093 c 1,14,-1
 680 909 l 1,15,-1
 643 910 l 2,16,17
 497 910 497 910 417.5 822.5 c 128,-1,18
 338 735 338 735 338 573 c 1,19,-1
 338 573 l 1,20,-1
 338 0 l 1,21,-1
 338 0 l 1,22,-1
 248 0 l 1,23,-1
 158 0 l 1,24,-1
 158 0 l 1,0,-1
EndSplineSet
EndChar

StartChar: s
Encoding: 115 115 44
Width: 1024
Flags: W
LayerCount: 2
Fore
SplineSet
746 760 m 1,0,-1
 746 760 l 1,1,2
 738 849 738 849 673.5 898 c 128,-1,3
 609 947 609 947 500 947 c 0,4,5
 388 947 388 947 329.5 908 c 128,-1,6
 271 869 271 869 271 794 c 0,7,8
 271 737 271 737 312 708 c 256,9,10
 353 679 353 679 475 650 c 2,11,-1
 661 606 l 2,12,13
 817 568 817 568 884 501 c 0,14,15
 950 435 950 435 950 316 c 0,16,17
 950 157 950 157 835.5 64 c 128,-1,18
 721 -29 721 -29 526 -29 c 0,19,20
 300 -29 300 -29 189 60.5 c 128,-1,21
 78 150 78 150 66 342 c 1,22,-1
 66 342 l 1,23,-1
 239 342 l 1,24,-1
 239 342 l 1,25,26
 252 228 252 228 319.5 177 c 128,-1,27
 387 126 387 126 526 126 c 0,28,29
 647 126 647 126 709.5 172 c 128,-1,30
 772 218 772 218 772 306 c 0,31,32
 772 362 772 362 731 391 c 256,33,34
 690 420 690 420 566 449 c 2,35,-1
 380 493 l 2,36,37
 229 529 229 529 165 594 c 0,38,39
 101 658 101 658 101 774 c 0,40,41
 101 925 101 925 208.5 1013.5 c 128,-1,42
 316 1102 316 1102 500 1102 c 0,43,44
 687 1102 687 1102 797.5 1011 c 128,-1,45
 908 920 908 920 915 760 c 1,46,-1
 915 760 l 1,47,-1
 746 760 l 1,0,-1
EndSplineSet
EndChar

StartChar: t
Encoding: 116 116 45
Width: 569
Flags: W
LayerCount: 2
Fore
SplineSet
526 1 m 1,0,1
 434 -13 434 -13 392 -13 c 0,2,3
 274 -13 274 -13 225.5 39 c 128,-1,4
 177 91 177 91 177 218 c 2,5,-1
 177 923 l 1,6,-1
 177 923 l 1,7,-1
 29 923 l 1,8,-1
 29 1070 l 1,9,-1
 177 1070 l 1,10,-1
 177 1070 l 1,11,-1
 177 1370 l 1,12,-1
 357 1370 l 1,13,-1
 357 1070 l 1,14,-1
 357 1070 l 1,15,-1
 526 1070 l 1,16,-1
 526 923 l 1,17,-1
 357 923 l 1,18,-1
 357 923 l 1,19,-1
 357 218 l 2,20,21
 357 182 357 182 385.5 161 c 128,-1,22
 414 140 414 140 462 140 c 2,23,-1
 526 140 l 1,24,-1
 526 1 l 1,0,1
EndSplineSet
EndChar

StartChar: u
Encoding: 117 117 46
Width: 1139
Flags: W
LayerCount: 2
Fore
SplineSet
319 1070 m 1,0,-1
 319 380 l 2,1,2
 319 245 319 245 371 185.5 c 128,-1,3
 423 126 423 126 540 126 c 0,4,5
 670 126 670 126 746 226.5 c 128,-1,6
 822 327 822 327 822 499 c 1,7,-1
 822 499 l 1,8,-1
 822 1070 l 1,9,-1
 822 1070 l 1,10,-1
 912 1070 l 1,11,-1
 1002 1070 l 1,12,-1
 1002 1070 l 1,13,-1
 1002 0 l 1,14,-1
 1002 0 l 1,15,-1
 917 0 l 1,16,-1
 831 0 l 1,17,-1
 831 0 l 1,18,-1
 831 163 l 1,19,-1
 831 163 l 1,20,-1
 831 163 l 1,21,22
 813 134 813 134 791 108 c 0,23,24
 676 -29 676 -29 503 -29 c 0,25,26
 321 -29 321 -29 230 62 c 128,-1,27
 139 153 139 153 139 335 c 2,28,-1
 139 1070 l 1,29,-1
 139 1070 l 1,30,-1
 229 1070 l 1,31,-1
 319 1070 l 1,32,-1
 319 1070 l 1,0,-1
EndSplineSet
EndChar

StartChar: v
Encoding: 118 118 47
Width: 1024
Flags: W
LayerCount: 2
Fore
SplineSet
16 1070 m 1,0,-1
 16 1070 l 1,1,-1
 121 1070 l 1,2,-1
 226 1070 l 1,3,-1
 226 1070 l 1,4,-1
 513 194 l 1,5,-1
 513 194 l 1,6,-1
 513 194 l 1,7,-1
 809 1070 l 1,8,-1
 809 1070 l 1,9,-1
 908 1070 l 1,10,-1
 1008 1070 l 1,11,-1
 1008 1070 l 1,12,-1
 609 0 l 1,13,-1
 513 0 l 1,14,-1
 416 0 l 1,15,-1
 16 1070 l 1,0,-1
EndSplineSet
EndChar

StartChar: w
Encoding: 119 119 48
Width: 1479
Flags: W
LayerCount: 2
Fore
SplineSet
333 0 m 1,0,-1
 29 1070 l 1,1,-1
 29 1070 l 1,2,-1
 128 1070 l 1,3,-1
 227 1070 l 1,4,-1
 227 1070 l 1,5,-1
 432 218 l 1,6,-1
 432 218 l 1,7,-1
 432 218 l 1,8,-1
 641 1070 l 1,9,-1
 741 1070 l 1,10,-1
 841 1070 l 1,11,-1
 1056 212 l 1,12,-1
 1056 212 l 1,13,-1
 1056 212 l 1,14,-1
 1273 1070 l 1,15,-1
 1273 1070 l 1,16,-1
 1362 1070 l 1,17,-1
 1452 1070 l 1,18,-1
 1452 1070 l 1,19,-1
 1149 0 l 1,20,-1
 1053 0 l 1,21,-1
 956 0 l 1,22,-1
 735 836 l 1,23,-1
 735 836 l 1,24,-1
 735 836 l 1,25,-1
 526 0 l 1,26,-1
 430 0 l 1,27,-1
 333 0 l 1,0,-1
EndSplineSet
EndChar

StartChar: x
Encoding: 120 120 49
Width: 1024
Flags: W
LayerCount: 2
Fore
SplineSet
23 0 m 1,0,-1
 403 552 l 1,1,-1
 403 552 l 1,2,-1
 43 1070 l 1,3,-1
 43 1070 l 1,4,-1
 159 1070 l 1,5,-1
 275 1070 l 1,6,-1
 275 1070 l 1,7,-1
 521 689 l 1,8,-1
 521 689 l 1,9,-1
 521 689 l 1,10,-1
 769 1070 l 1,11,-1
 769 1070 l 1,12,-1
 880 1070 l 1,13,-1
 992 1070 l 1,14,-1
 992 1070 l 1,15,-1
 632 549 l 1,16,-1
 632 549 l 1,17,-1
 1004 0 l 1,18,-1
 1004 0 l 1,19,-1
 892 0 l 1,20,-1
 779 0 l 1,21,-1
 779 0 l 1,22,-1
 512 408 l 1,23,-1
 512 408 l 1,24,-1
 512 408 l 1,25,-1
 250 0 l 1,26,-1
 250 0 l 1,27,-1
 137 0 l 1,28,-1
 23 0 l 1,29,-1
 23 0 l 1,0,-1
EndSplineSet
EndChar

StartChar: y
Encoding: 121 121 50
Width: 1024
Flags: W
LayerCount: 2
Fore
SplineSet
1001 1070 m 1,0,-1
 594 -35 l 2,1,2
 500 -282 500 -282 426.5 -358 c 128,-1,3
 353 -434 353 -434 206 -434 c 0,4,5
 158 -435 158 -435 119 -423 c 1,6,-1
 119 -256 l 1,7,8
 160 -271 160 -271 222 -272 c 0,9,10
 283 -272 283 -272 324 -222 c 128,-1,11
 365 -172 365 -172 417 -35 c 1,12,-1
 420 -18 l 1,13,-1
 420 -18 l 1,14,-1
 23 1070 l 1,15,-1
 23 1070 l 1,16,-1
 125 1070 l 1,17,-1
 228 1070 l 1,18,-1
 228 1070 l 1,19,-1
 514 185 l 1,20,-1
 514 185 l 1,21,-1
 514 185 l 1,22,-1
 804 1070 l 1,23,-1
 804 1070 l 1,24,-1
 902 1070 l 1,25,-1
 1001 1070 l 1,26,-1
 1001 1070 l 1,0,-1
EndSplineSet
EndChar

StartChar: z
Encoding: 122 122 51
Width: 1024
Flags: W
LayerCount: 2
Fore
SplineSet
63 141 m 1,0,-1
 705 920 l 1,1,-1
 705 920 l 1,2,-1
 111 920 l 1,3,-1
 111 920 l 1,4,-1
 111 995 l 1,5,-1
 111 1070 l 1,6,-1
 111 1070 l 1,7,-1
 946 1070 l 1,8,-1
 946 1000 l 1,9,-1
 946 929 l 1,10,-1
 304 150 l 1,11,-1
 304 150 l 1,12,-1
 961 150 l 1,13,-1
 961 150 l 1,14,-1
 961 75 l 1,15,-1
 961 0 l 1,16,-1
 961 0 l 1,17,-1
 63 0 l 1,18,-1
 63 70 l 1,19,-1
 63 141 l 1,0,-1
EndSplineSet
EndChar
